<?xml version="1.0" encoding="UTF-8" standalone="no"?>
<!DOCTYPE svg PUBLIC "-//W3C//DTD SVG 1.1//EN" "http://www.w3.org/Graphics/SVG/1.1/DTD/svg11.dtd">
<svg width="100%" height="100%" viewBox="0 0 1080 1080" version="1.1" xmlns="http://www.w3.org/2000/svg" xmlns:xlink="http://www.w3.org/1999/xlink" xml:space="preserve" xmlns:serif="http://www.serif.com/" style="fill-rule:evenodd;clip-rule:evenodd;stroke-linejoin:round;stroke-miterlimit:2;">
    <g transform="matrix(7.09756,0,0,7.09756,540,540)">
        <g transform="matrix(1,0,0,1,-76.0825,-76.0825)">
            <g id="Bike">
                <path d="M29.242,72.145L29.242,95.06L37.08,73.527L37.912,73.829L30.074,95.365L44.805,77.81L45.484,78.378L30.752,95.936L50.601,84.477L51.041,85.242L31.195,96.702L53.766,92.721L53.918,93.596L31.353,97.574L53.918,101.553L53.766,102.427L31.195,98.447L51.041,109.905L50.601,110.672L30.752,99.212L45.484,116.77L44.805,117.338L30.074,99.783L37.912,121.32L37.08,121.621L29.242,100.087L29.242,123.003L28.355,123.003L28.355,100.087L20.517,121.621L19.685,121.32L27.524,99.783L12.793,117.338L12.113,116.77L26.846,99.212L6.996,110.672L6.556,109.905L26.402,98.447L3.832,102.427L3.679,101.553L26.244,97.574L3.679,93.596L3.832,92.721L26.402,96.702L6.556,85.242L6.996,84.477L26.846,95.936L12.113,78.378L12.793,77.81L27.524,95.365L19.685,73.829L20.517,73.527L28.355,95.06L28.355,72.145L29.242,72.145Z" style="fill:rgb(212,242,255);fill-rule:nonzero;"/>
                <path d="M124.705,72.145L124.705,95.06L132.543,73.527L133.374,73.829L125.536,95.365L140.266,77.81L140.947,78.378L126.214,95.936L146.063,84.477L146.504,85.242L126.657,96.702L149.228,92.721L149.38,93.596L126.815,97.574L149.38,101.553L149.228,102.427L126.657,98.447L146.504,109.905L146.063,110.672L126.214,99.212L140.947,116.77L140.266,117.338L125.536,99.783L133.374,121.32L132.543,121.621L124.705,100.087L124.705,123.003L123.817,123.003L123.817,100.087L115.98,121.621L115.147,121.32L122.986,99.783L108.255,117.338L107.575,116.77L122.307,99.212L102.459,110.672L102.018,109.905L121.865,98.447L99.294,102.427L99.141,101.553L121.707,97.574L99.141,93.596L99.294,92.721L121.865,96.702L102.018,85.242L102.459,84.477L122.307,95.936L107.575,78.378L108.255,77.81L122.986,95.365L115.147,73.829L115.98,73.527L123.817,95.06L123.817,72.145L124.705,72.145Z" style="fill:rgb(212,242,255);fill-rule:nonzero;"/>
                <g transform="matrix(-0.9025,-0.4307,0.4307,-0.9025,102.54,204.536)">
                    <rect x="73.637" y="82.906" width="1.567" height="15.513" style="fill:rgb(255,191,0);"/>
                </g>
                <path d="M81.347,83.08L76.133,83.08C75.72,83.08 75.382,83.419 75.382,83.832C75.382,84.245 75.72,84.582 76.133,84.582L81.347,84.582C81.76,84.582 82.098,84.245 82.098,83.832C82.097,83.419 81.76,83.08 81.347,83.08Z" style="fill:rgb(255,191,0);"/>
                <path d="M28.799,69.67C44.21,69.67 56.702,82.163 56.702,97.574C56.702,112.985 44.209,125.477 28.799,125.477L28.799,122.376C42.497,122.376 53.602,111.271 53.602,97.573C53.602,83.874 42.497,72.768 28.799,72.768L28.799,69.67ZM28.799,125.478C13.388,125.478 0.895,112.986 0.895,97.575C0.895,82.164 13.388,69.67 28.799,69.67L28.799,72.77C15.1,72.77 3.995,83.875 3.995,97.574C3.995,111.272 15.1,122.377 28.799,122.377L28.799,125.478Z" style="fill:rgb(64,107,243);"/>
                <path d="M28.799,67.271C45.535,67.271 59.103,80.838 59.103,97.575C59.103,100.977 57.632,100.621 56.55,100.505C56.651,99.542 56.702,98.566 56.702,97.575C56.702,82.164 44.209,69.671 28.799,69.671C15.733,69.671 4.767,78.651 1.731,90.775C0.839,90.547 -0.804,90.151 0.463,86.814C4.803,75.389 15.853,67.271 28.799,67.271Z" style="fill:white;"/>
                <path d="M124.261,69.67C139.672,69.67 152.165,82.163 152.165,97.574C152.165,112.985 139.672,125.477 124.261,125.477L124.261,122.376C137.959,122.376 149.065,111.271 149.065,97.573C149.065,83.874 137.96,72.768 124.261,72.768L124.261,69.67ZM124.261,125.478C108.85,125.478 96.357,112.986 96.357,97.575C96.357,82.164 108.85,69.67 124.261,69.67L124.261,72.77C110.563,72.77 99.457,83.875 99.457,97.575C99.457,111.273 110.563,122.378 124.261,122.378L124.261,125.478Z" style="fill:white;"/>
                <path d="M124.261,69.67C111.196,69.67 100.229,78.65 97.193,90.774C96.301,90.546 94.657,90.15 95.925,86.813C100.266,75.389 111.315,67.271 124.26,67.271L124.26,69.67L124.261,69.67Z" style="fill:white;"/>
                <path d="M28.869,96.085L63.937,97.748C65.202,97.809 66.525,97.687 67.796,97.363C68.952,97.067 70.043,96.612 70.973,95.98L78.733,90.714C79.549,90.159 80.287,89.461 80.963,88.687C81.659,87.888 82.29,87.004 82.872,86.107L93.072,70.416C93.747,69.378 94.532,68.381 95.419,67.489C96.248,66.656 97.17,65.913 98.177,65.305L111.022,57.582L112.551,60.14L99.705,67.864C98.923,68.334 98.196,68.924 97.532,69.593C96.793,70.334 96.136,71.17 95.57,72.039L85.372,87.73C84.722,88.729 84.011,89.725 83.206,90.649C82.38,91.595 81.457,92.462 80.403,93.179L72.643,98.445C71.397,99.289 69.989,99.886 68.532,100.259C66.987,100.652 65.361,100.799 63.797,100.726L28.729,99.062L28.869,96.085Z" style="fill:white;fill-rule:nonzero;"/>
                <path d="M122.842,98.029L104.522,41.171L107.359,40.261L125.679,97.118L122.842,98.029Z" style="fill:white;fill-rule:nonzero;"/>
                <path d="M64.166,82.609L70.999,79.43C71.932,78.996 72.795,78.412 73.6,77.744C74.427,77.056 75.216,76.258 75.967,75.431L88.895,61.196C89.747,60.255 90.705,59.377 91.75,58.62C92.722,57.916 93.774,57.315 94.894,56.868L109.193,51.149L110.303,53.916L96.003,59.636C95.13,59.986 94.291,60.467 93.502,61.038C92.628,61.671 91.821,62.411 91.102,63.204L78.174,77.439C77.362,78.334 76.482,79.219 75.503,80.032C74.502,80.863 73.423,81.594 72.248,82.14L65.415,85.318L64.166,82.609Z" style="fill:white;fill-rule:nonzero;"/>
                <path d="M69.726,98.282L51.674,58.967L54.383,57.729L72.436,97.043L69.726,98.282Z" style="fill:white;fill-rule:nonzero;"/>
                <path d="M57.332,66.203L29.937,98.536L27.835,101.018L27.327,97.808L21.644,61.885L24.586,61.418L29.762,94.129L55.055,64.275L57.332,66.203Z" style="fill:white;fill-rule:nonzero;"/>
                <path d="M15.27,63.017C14.445,63.017 13.775,62.349 13.775,61.524C13.775,60.697 14.444,60.029 15.27,60.029L54.635,60.029C55.46,60.029 56.13,60.697 56.13,61.524C56.13,62.349 55.46,63.017 54.635,63.017L15.27,63.017Z" style="fill:white;fill-rule:nonzero;"/>
                <path d="M65.097,53.473C64.902,55.784 59.763,56.349 57.481,58.286C55.199,60.221 50.709,59.86 49.005,58.409C47.301,56.96 41.156,56.927 40.999,54.596C40.841,52.266 48.425,53.599 53.214,53.427C58.004,53.256 65.235,51.836 65.097,53.473Z" style="fill:rgb(255,191,0);"/>
                <path d="M79.195,37.171C78.418,37.448 77.562,37.043 77.285,36.266C77.009,35.489 77.413,34.634 78.191,34.357L90.734,29.878C92.249,29.337 94.171,29.335 95.855,29.837C97.48,30.321 98.936,31.286 99.712,32.708L102.675,38.153C102.843,38.462 103.111,38.763 103.425,38.98C103.638,39.127 103.861,39.222 104.055,39.222L105.941,39.222C106.768,39.222 107.436,39.892 107.436,40.716C107.436,41.542 106.767,42.211 105.941,42.211L104.055,42.211C103.222,42.211 102.421,41.906 101.731,41.432C101.035,40.952 100.44,40.276 100.059,39.578L97.096,34.134C96.731,33.463 95.933,32.975 95.003,32.698C93.899,32.369 92.674,32.358 91.738,32.691L79.195,37.171Z" style="fill:rgb(255,191,0);fill-rule:nonzero;"/>
                <path d="M115.656,27.334C116.461,27.495 116.985,28.279 116.823,29.085C116.662,29.891 115.877,30.414 115.071,30.254L112.653,29.764C111.873,29.607 111.348,29.624 111.087,29.826C110.846,30.01 110.722,30.476 110.717,31.232L110.676,37.429C110.671,38.239 110.485,39.265 110.066,40.078C109.639,40.907 108.975,41.565 108.014,41.779L106.26,42.171C105.458,42.348 104.663,41.84 104.485,41.037C104.308,40.234 104.816,39.439 105.618,39.263L107.372,38.871C107.403,38.864 107.364,38.812 107.416,38.712C107.61,38.335 107.697,37.83 107.699,37.417L107.739,31.22C107.75,29.485 108.262,28.241 109.265,27.466C110.248,26.707 111.574,26.51 113.237,26.845L115.656,27.334Z" style="fill:rgb(255,191,0);fill-rule:nonzero;"/>
                <path d="M109.723,44.215L112.82,44.215L112.82,46.822L108.19,46.822L108.103,46.529C107.721,45.258 108.45,44.215 109.723,44.215ZM113.954,44.215L117.104,44.215L117.104,46.822L113.954,46.822L113.954,44.215ZM118.238,44.215L121.388,44.215L121.388,46.822L118.238,46.822L118.238,44.215ZM122.523,44.215L125.672,44.215L125.672,46.822L122.523,46.822L122.523,44.215ZM126.807,44.215L128.968,44.215C130.241,44.215 132.313,45.243 131.977,46.529L131.901,46.822L126.807,46.822L126.807,44.215ZM131.605,47.955L130.784,51.105L126.807,51.105L126.807,47.955L131.605,47.955ZM130.488,52.239L129.666,55.39L126.807,55.39L126.807,52.239L130.488,52.239ZM129.37,56.523L128.547,59.674L126.806,59.674L126.806,56.523L129.37,56.523ZM128.252,60.809L128.069,61.513C127.871,62.268 127.574,62.937 126.807,63.358L126.807,60.809L128.252,60.809ZM125.672,63.729C125.304,63.792 124.876,63.826 124.378,63.826L122.523,63.826L122.523,60.809L125.672,60.809L125.672,63.729ZM121.388,63.825L118.238,63.825L118.238,60.808L121.388,60.808L121.388,63.825ZM117.104,63.825L115.607,63.825C115.041,63.825 114.459,63.619 113.954,63.279L113.954,60.808L117.104,60.808L117.104,63.825ZM112.82,62.042C112.729,61.872 112.654,61.695 112.599,61.513L112.388,60.809L112.821,60.809L112.821,62.042L112.82,62.042ZM112.047,59.675L111.102,56.524L112.82,56.524L112.82,59.675L112.047,59.675ZM110.762,55.391L109.816,52.24L112.82,52.24L112.82,55.391L110.762,55.391ZM109.476,51.105L108.531,47.955L112.82,47.955L112.82,51.105L109.476,51.105ZM113.954,47.955L113.954,51.105L117.104,51.105L117.104,47.955L113.954,47.955ZM118.238,47.955L118.238,51.105L121.388,51.105L121.388,47.955L118.238,47.955ZM122.523,47.955L122.523,51.105L125.672,51.105L125.672,47.955L122.523,47.955ZM113.954,52.239L113.954,55.39L117.104,55.39L117.104,52.239L113.954,52.239ZM118.238,52.239L118.238,55.39L121.388,55.39L121.388,52.239L118.238,52.239ZM122.523,52.239L122.523,55.39L125.672,55.39L125.672,52.239L122.523,52.239ZM113.954,56.523L113.954,59.674L117.104,59.674L117.104,56.523L113.954,56.523ZM118.238,56.523L118.238,59.674L121.388,59.674L121.388,56.523L118.238,56.523ZM122.523,56.523L122.523,59.674L125.672,59.674L125.672,56.523L122.523,56.523Z" style="fill:rgb(64,107,243);"/>
                <path d="M28.799,103.171C31.882,103.171 34.396,100.657 34.396,97.573C34.396,94.49 31.882,91.975 28.799,91.975C25.716,91.975 23.201,94.49 23.201,97.573C23.201,100.657 25.716,103.171 28.799,103.171Z" style="fill:rgb(255,191,0);"/>
                <path d="M124.261,103.171C127.344,103.171 129.859,100.657 129.859,97.573C129.859,94.49 127.344,91.975 124.261,91.975C121.178,91.975 118.663,94.49 118.663,97.573C118.663,100.657 121.178,103.171 124.261,103.171Z" style="fill:rgb(255,191,0);"/>
                <g>
                    <path d="M71.081,87.192C76.863,87.192 81.55,91.88 81.55,97.662C81.55,103.444 76.863,108.131 71.081,108.131L71.081,105.656C75.496,105.655 79.075,102.077 79.075,97.662C79.075,93.247 75.496,89.668 71.081,89.668L71.081,87.192ZM71.08,87.192L71.081,89.668L71.08,89.668C66.665,89.668 63.086,93.247 63.086,97.662C63.086,102.077 66.665,105.656 71.08,105.656L71.081,105.656L71.081,108.131L71.08,108.131C65.298,108.131 60.611,103.444 60.611,97.662C60.611,91.881 65.298,87.192 71.08,87.192Z" style="fill:rgb(212,242,255);"/>
                    <path d="M78.259,103.464L77.046,104.705L71.947,99.722L71.947,106.852L70.213,106.852L70.213,99.791L65.277,104.841L64.038,103.628L69.02,98.528L61.89,98.528L61.89,96.795L68.953,96.795L63.902,91.859L65.114,90.618L70.213,95.603L70.213,88.474L71.947,88.474L71.947,95.534L76.883,90.484L78.124,91.695L73.14,96.795L80.27,96.795L80.27,98.528L73.208,98.528L78.259,103.464Z" style="fill:rgb(212,242,255);"/>
                </g>
                <g transform="matrix(-0.9025,-0.4307,0.4307,-0.9025,83.801,228.295)">
                    <rect x="66.957" y="96.907" width="1.567" height="15.512" style="fill:rgb(255,191,0);"/>
                </g>
                <path d="M68.276,110.801L63.062,110.801C62.648,110.801 62.312,111.138 62.312,111.55C62.312,111.964 62.649,112.301 63.062,112.301L68.276,112.301C68.689,112.301 69.027,111.964 69.027,111.55C69.027,111.138 68.689,110.801 68.276,110.801Z" style="fill:rgb(255,191,0);"/>
            </g>
        </g>
    </g>
</svg>
